<?xml version="1.0" encoding="utf-8"?>
<!-- Generator: Adobe Illustrator 15.0.0, SVG Export Plug-In . SVG Version: 6.00 Build 0)  -->
<!DOCTYPE svg PUBLIC "-//W3C//DTD SVG 1.1//EN" "http://www.w3.org/Graphics/SVG/1.1/DTD/svg11.dtd">
<svg version="1.1" id="Layer_1" xmlns="http://www.w3.org/2000/svg" xmlns:xlink="http://www.w3.org/1999/xlink" x="0px" y="0px"
	 width="100px" height="100px" viewBox="0 0 100 100" enable-background="new 0 0 100 100" xml:space="preserve">
<g id="sV6vYn_1_">
	<g>
		<path fill-rule="evenodd" clip-rule="evenodd" d="M71.748,35.068c0,0.035,0,0.071,0,0.105c-0.632,4.903-1.119,9.951-1.74,14.864
			c-4.27,0-8.538,0-12.809,0c-0.122,14.373-0.017,28.975-0.053,43.435c-6.43,0-12.861,0-19.292,0c0-14.478,0-28.956,0-43.435
			c-3.181-0.035-6.501,0.071-9.593-0.052c0.035-4.955-0.071-10.05,0.053-14.917c3.18,0,6.359,0,9.54,0
			c0.126-5.382-0.34-10.641,0.527-15.022c0.816-4.125,2.751-7.538,5.798-9.751c3.038-2.207,7.124-3.296,11.913-3.637
			c4.949-0.353,10.209,0.153,15.55-0.053c-0.035,4.972,0.07,10.085-0.053,14.97c-3.976,0.334-9.181-0.678-12.124,0.58
			c-2.447,1.046-2.267,3.804-2.267,7.274c0,1.882-0.093,3.759-0.053,5.587C61.908,35.139,66.898,35.033,71.748,35.068z"/>
	</g>
</g>
</svg>
