<?xml version="1.0" encoding="utf-8"?>
<!-- Generator: Adobe Illustrator 15.0.0, SVG Export Plug-In . SVG Version: 6.00 Build 0)  -->
<!DOCTYPE svg PUBLIC "-//W3C//DTD SVG 1.1//EN" "http://www.w3.org/Graphics/SVG/1.1/DTD/svg11.dtd">
<svg version="1.1" id="Layer_1" xmlns="http://www.w3.org/2000/svg" xmlns:xlink="http://www.w3.org/1999/xlink" x="0px" y="0px"
	 width="100px" height="100px" viewBox="0 0 100 100" enable-background="new 0 0 100 100" xml:space="preserve">
<g>
	<polygon points="81.276,19.864 81.276,8.168 75.429,8.168 75.429,19.864 63.738,19.864 63.738,25.712 
		75.429,25.712 75.429,37.403 81.276,37.403 81.276,25.712 92.974,25.712 92.974,19.864 	"/>
	<path d="M61.701,6.998c0,0-18.721,0-25.351,0c-12.861,0-23.587,9.486-23.587,19.922
		c0,10.663,7.046,19.162,19.146,19.162c0.841,0,1.659-0.047,2.457-0.105c-0.787,1.507-1.344,3.186-1.344,4.946
		c0,2.959,1.627,4.65,3.643,6.604c-1.521,0-2.992,0.041-4.599,0.041c-14.73,0-25.04,10.143-25.04,19.865
		c0,9.586,12.431,15.57,27.161,15.57c16.788,0,27.114-9.523,27.114-19.109c0-7.674-1.658-11.537-9.843-17.674
		c-2.353-1.766-7.464-5.383-7.464-7.807c0-2.84,0.808-4.242,5.092-7.585c4.383-3.428,7.485-7.943,7.485-13.549
		c0-6.105-2.494-11.644-7.192-14.332h6.656L61.701,6.998z M53.107,72.244c0.21,0.883,0.325,1.797,0.325,2.73
		c0,7.748-4.986,13.797-19.303,13.797c-10.18,0-17.533-6.447-17.533-14.186c0-7.59,8.625-14.131,18.809-14.016
		c2.374,0.02,4.588,0.398,6.594,1.049C47.532,65.463,51.983,67.867,53.107,72.244z M36.808,42.207
		c-6.836-0.21-13.329-6.479-14.505-15.45c-1.187-8.972,3.401-15.838,10.231-15.639c6.83,0.21,12.678,7.57,13.854,16.542
		C47.564,36.632,43.637,42.406,36.808,42.207z"/>
</g>
</svg>
