<?xml version="1.0" encoding="utf-8"?>
<!-- Generator: Adobe Illustrator 15.0.0, SVG Export Plug-In . SVG Version: 6.00 Build 0)  -->
<!DOCTYPE svg PUBLIC "-//W3C//DTD SVG 1.1//EN" "http://www.w3.org/Graphics/SVG/1.1/DTD/svg11.dtd">
<svg version="1.1" id="Layer_1" xmlns="http://www.w3.org/2000/svg" xmlns:xlink="http://www.w3.org/1999/xlink" x="0px" y="0px"
	 width="100px" height="100px" viewBox="0 0 100 100" enable-background="new 0 0 100 100" xml:space="preserve">
<g>
	<path d="M14.247,36.062c-1.642,0-3.284,0-4.926,0c-0.163,0-0.073,1.105-0.073,1.261c0,8.706,0,17.411,0,26.116
		c0,8.514,0,17.027,0,25.542c0,0.38-0.205,0.997,0.24,0.997c1.844,0,3.688,0,5.531,0c4.053,0,8.105,0,12.158,0
		c0-1.572,0-3.145,0-4.717c0-9.977,0-19.954,0-29.931c0-1.193,0.055-19.269-0.051-19.269C22.834,36.062,18.541,36.062,14.247,36.062
		z"/>
	<path d="M87.186,42.258c-3.676-4.982-9.545-7.37-15.625-7.458c-3.861-0.056-7.748,0.779-10.98,2.96
		c-2.285,1.541-4.076,3.642-5.564,5.938c0-1.024,0-2.05,0-3.074c0-1.249,0-2.497,0-3.746c0-0.387,0.192-0.815-0.24-0.815
		c-1.844,0-3.686,0-5.529,0c-4.05,0-8.101,0-12.151,0c0.034,0.747,0.04,1.496,0.05,2.244c0.13,9.975,0.055,19.955,0.028,29.931
		c-0.019,7.247-0.044,14.494-0.078,21.741c0.054,0,0.108,0,0.161,0c4.453,0,8.906,0,13.357,0c1.465,0,2.929,0,4.394,0
		c0.017,0,0.009-2.377,0.009-2.517c0-9.01,0-18.02,0-27.028c0-2.558,0.263-4.878,1.705-7.062c2.165-3.276,5.869-4.906,9.758-4.316
		c6.135,0.93,7.409,7.331,7.409,12.566c0,8.863,0,17.728,0,26.592c0,0.507,0,1.014,0,1.521c0,0.265-0.03,0.243,0.24,0.243
		c1.844,0,3.687,0,5.529,0c4.053,0,8.104,0,12.156,0c0-6.179,0-12.358,0-18.538c0-3.973,0-7.946,0-11.92
		C91.813,53.511,90.84,47.208,87.186,42.258z"/>
	<path d="M9.742,14.163c-1.939,2.851-2.062,6.812-0.386,9.812c1.782,3.192,5.296,4.743,8.854,4.723c3.344,0,6.714-1.308,8.623-4.16
		c1.759-2.63,1.961-6.105,0.709-8.987C24.59,8.749,13.834,8.147,9.742,14.163z"/>
</g>
</svg>
