<svg xmlns="http://www.w3.org/2000/svg" xmlns:xlink="http://www.w3.org/1999/xlink" width="0" height="0" style="position:absolute">

    <symbol id="facebook" viewBox="0 0 100 100">
        <path fill-rule="evenodd" clip-rule="evenodd" d="M71.748 35.068v.105c-.632 4.903-1.12 9.95-1.74 14.864h-12.81c-.12 14.373-.016 28.975-.052 43.435H37.854V50.037c-3.18-.035-6.5.07-9.593-.052.036-4.955-.07-10.05.054-14.917h9.54c.126-5.382-.34-10.64.527-15.022.817-4.125 2.752-7.538 5.8-9.75 3.037-2.208 7.123-3.297 11.912-3.638 4.95-.353 10.21.153 15.55-.053-.035 4.972.07 10.085-.053 14.97-3.977.334-9.182-.678-12.125.58-2.447 1.046-2.267 3.804-2.267 7.274 0 1.88-.093 3.758-.053 5.586 4.763.123 9.753.017 14.603.052z"/>
    </symbol>

    <symbol id="google-plus" viewBox="0 0 100 100">
        <path d="M81.276 19.864V8.168H75.43v11.696H63.737v5.848h11.69v11.69h5.848v-11.69h11.698v-5.848zM61.7 6.998H36.35c-12.86 0-23.587 9.486-23.587 19.922 0 10.663 7.046 19.162 19.146 19.162.84 0 1.658-.047 2.456-.105-.787 1.507-1.344 3.186-1.344 4.946 0 2.96 1.627 4.65 3.643 6.604-1.52 0-2.992.04-4.6.04-14.73 0-25.04 10.144-25.04 19.866 0 9.586 12.432 15.57 27.162 15.57 16.788 0 27.114-9.523 27.114-19.11 0-7.673-1.657-11.536-9.842-17.673-2.353-1.766-7.464-5.383-7.464-7.807 0-2.84.808-4.242 5.092-7.585 4.383-3.428 7.485-7.943 7.485-13.55 0-6.104-2.493-11.643-7.19-14.33h6.655l5.666-5.95zm-8.593 65.246c.21.883.325 1.797.325 2.73 0 7.748-4.986 13.797-19.303 13.797-10.18 0-17.534-6.446-17.534-14.185 0-7.59 8.625-14.13 18.81-14.016 2.373.02 4.587.397 6.593 1.048 5.532 3.845 9.983 6.25 11.107 10.626zm-16.3-30.037c-6.835-.21-13.328-6.48-14.504-15.45-1.187-8.972 3.4-15.838 10.23-15.64 6.83.21 12.68 7.57 13.855 16.543 1.176 8.972-2.75 14.746-9.58 14.547z"/>
    </symbol>

    <symbol id="linkedin" viewBox="0 0 100 100">
        <path d="M14.247 36.062H9.32c-.162 0-.072 1.105-.072 1.26V88.98c0 .38-.205.998.24.998h17.69V55.33c0-1.193.054-19.27-.052-19.27-4.292.002-8.585.002-12.88.002zM87.186 42.258c-3.676-4.982-9.545-7.37-15.625-7.458-3.86-.056-7.747.78-10.98 2.96-2.284 1.54-4.075 3.642-5.563 5.938v-6.82c0-.387.192-.815-.24-.815h-17.68c.034.747.04 1.496.05 2.244.13 9.975.055 19.955.028 29.93-.02 7.248-.044 14.495-.078 21.742H55.01c.016 0 .008-2.378.008-2.518V60.434c0-2.558.263-4.878 1.705-7.062 2.165-3.276 5.87-4.906 9.758-4.316 6.136.93 7.41 7.33 7.41 12.566v28.112c0 .266-.03.244.24.244h17.685V59.52c-.002-6.01-.975-12.312-4.63-17.262zM9.742 14.163c-1.94 2.85-2.062 6.812-.386 9.812 1.782 3.192 5.296 4.743 8.854 4.723 3.344 0 6.714-1.308 8.623-4.16 1.76-2.63 1.96-6.105.71-8.987-2.953-6.8-13.71-7.403-17.8-1.387z"/>
    </symbol>

    <symbol id="pinterest" viewBox="0 0 279.3 281.3">
        <path d="M139.6 4C63.9 4 2.5 65.4 2.5 141.2c0 56.2 33.8 104.4 82.1 125.7-.4-9.6-.1-21.1 2.4-31.5 2.6-11.1 17.7-74.8 17.7-74.8s-4.4-8.8-4.4-21.7c0-20.3 11.8-35.5 26.5-35.5 12.5 0 18.5 9.4 18.5 20.6 0 12.5-8 31.3-12.1 48.7-3.4 14.6 7.3 26.4 21.7 26.4 26 0 43.5-33.4 43.5-72.9 0-30.1-20.3-52.6-57.1-52.6-41.6 0-67.5 31-67.5 65.7 0 12 3.5 20.4 9 26.9 2.5 3 2.9 4.2 2 7.6-.7 2.5-2.2 8.6-2.8 11-.9 3.5-3.7 4.7-6.9 3.4-19.2-7.8-28.1-28.8-28.1-52.4 0-39 32.9-85.7 98.1-85.7 52.4 0 86.9 37.9 86.9 78.6 0 53.8-29.9 94-74 94-14.8 0-28.7-8-33.5-17.1 0 0-8 31.6-9.7 37.7-2.9 10.6-8.6 21.1-13.8 29.4 12.3 3.6 25.4 5.6 38.9 5.6 75.8 0 137.2-61.4 137.2-137.2C276.8 65.4 215.4 4 139.6 4z"/>
    </symbol>

    <symbol id="reddit" viewBox="0 0 360 500.00004">
        <g transform="matrix(12.585 0 0 12.585 -584.344 -1.372)"><ellipse cx="65.245" cy="28.418" rx="4.411" ry="5.324"/><g><path d="M58.303 39.285c.063-.197.108-.4.108-.615 0-1.36-1.36-2.463-3.04-2.463-1.678 0-3.038 1.104-3.038 2.463 0 .215.044.418.108.615h5.863z"/><path d="M58.303 39.285c.063-.197.108-.4.108-.615 0-1.36-1.36-2.463-3.04-2.463-1.678 0-3.038 1.104-3.038 2.463 0 .215.044.418.108.615h5.863z"/></g><g><path d="M68.95 39.285c.06-.197.106-.4.106-.615 0-1.36-1.36-2.463-3.04-2.463s-3.04 1.104-3.04 2.463c0 .215.043.418.107.615h5.866z"/><path d="M68.95 39.285c.06-.197.106-.4.106-.615 0-1.36-1.36-2.463-3.04-2.463s-3.04 1.104-3.04 2.463c0 .215.043.418.107.615h5.866z"/></g><circle cx="49.684" cy="11.836" r="2.702"/><circle cx="71.786" cy="11.836" r="2.702"/><path d="M68.226 2.352L62.822 1.08l-1.986 6.278"/><ellipse cx="56.146" cy="28.418" rx="4.411" ry="5.324"/><circle cx="70.431" cy="2.789" r="2.13"/><g><path d="M59.18 39.29h2.99c2.656-1.384 4.625-6.34 4.625-12.263 0-6.99-2.74-12.655-6.12-12.655s-6.118 5.666-6.118 12.655c0 5.922 1.968 10.88 4.624 12.262z"/><path d="M59.18 39.29h2.99c2.656-1.384 4.625-6.34 4.625-12.263 0-6.99-2.74-12.655-6.12-12.655s-6.118 5.666-6.118 12.655c0 5.922 1.968 10.88 4.624 12.262z"/></g><ellipse cx="60.676" cy="15.552" rx="12.238" ry="7.987"/><path d="M57.457 39.285h6.596"/><g><path d="M56.437 12c-1.087 0-2 .913-2 2s.913 1.97 2 1.97 1.97-.883 1.97-1.97-.883-2-1.97-2z"/><path d="M65.063 12c-1.087 0-2 .912-2 2 0 1.087.913 1.97 2 1.97 1.088 0 1.97-.883 1.97-1.97 0-1.088-.882-2-1.97-2z"/><path d="M56.507 19.23c1.066 1.065 2.786 1.27 4.212 1.27"/><path d="M64.963 19.23c-1.067 1.065-2.786 1.27-4.213 1.27"/></g></g>
    </symbol>

    <symbol id="twitter" viewBox="0 0 100 100">
        <path fill-rule="evenodd" clip-rule="evenodd" d="M38.968 83.765c-18.014-.887-29.285-8.518-37.48-19.225 4.27 3.72 10.406 7.006 18.417 6.623 7.976-.38 13.473-3.664 17.528-7.834-2.79.374-5.42-.697-6.463-2.344-1.62-2.56.89-5.03 3.23-5.897-5.908.282-9.726-2.157-11.792-5.978 1.405-1.664 3.577-2.562 6.542-2.666-5.348-1.52-9.777-3.954-10.743-9.854 1.856-.3 3.53-.78 5.735-.728-3.912-2.498-8.27-5.673-8.08-12.278 5.877 2.245 11.864 4.61 17.45 7.27 5.61 2.67 11.014 5.353 14.944 9.774 3.543-9.327 7.536-18.635 15.186-23.587-.104 1.16-.672 1.858-1.212 2.584 2.005-1.604 4.27-2.944 7.434-3.392-.482 1.752-1.917 2.553-3.474 3.23 1.117-.255 2.327-.795 3.796-1.212 1.028-.29 4.06-1.142 4.12.485.05 1.364-2.348 2.044-3.635 2.424-1.874.552-3.31.81-4.604 1.372 6.827-.187 11.422 2.894 14.782 6.382 3.086 3.204 5.25 7.368 6.22 12.198 3.59 1.263 8.732.22 11.39-1.212-1.536 3.715-5.327 5.873-10.42 6.3 2.665 1.23 6.87 1.633 10.663 1.212.093.217-.403.688-.727.97-2.36 2.07-6.01 3.442-10.582 3.393-2.726 10.04-8.764 17.368-16.315 22.618-7.614 5.29-17.332 8.873-29.565 9.37h-2.342z"/>
    </symbol>

</svg>