<?xml version="1.0" encoding="utf-8"?>
<!-- Generator: Adobe Illustrator 15.0.0, SVG Export Plug-In . SVG Version: 6.00 Build 0)  -->
<!DOCTYPE svg PUBLIC "-//W3C//DTD SVG 1.1//EN" "http://www.w3.org/Graphics/SVG/1.1/DTD/svg11.dtd">
<svg version="1.1" id="Layer_1" xmlns="http://www.w3.org/2000/svg" xmlns:xlink="http://www.w3.org/1999/xlink" x="0px" y="0px"
	 width="100px" height="100px" viewBox="0 0 100 100" enable-background="new 0 0 100 100" xml:space="preserve">
<g id="ujwR2b_1_">
	<g>
		<path fill-rule="evenodd" clip-rule="evenodd" d="M38.968,83.765C20.954,82.878,9.683,75.247,1.487,64.54
			c4.271,3.721,10.407,7.006,18.418,6.623c7.976-0.379,13.473-3.664,17.528-7.834c-2.791,0.375-5.42-0.696-6.463-2.343
			c-1.621-2.561,0.891-5.03,3.231-5.897c-5.909,0.283-9.727-2.156-11.793-5.977c1.405-1.664,3.577-2.562,6.542-2.666
			c-5.348-1.519-9.777-3.954-10.743-9.854c1.856-0.299,3.53-0.779,5.735-0.728c-3.912-2.498-8.271-5.673-8.079-12.278
			c5.876,2.245,11.863,4.61,17.449,7.27c5.609,2.671,11.014,5.353,14.944,9.774c3.543-9.327,7.536-18.635,15.186-23.587
			c-0.104,1.161-0.672,1.858-1.212,2.584c2.005-1.604,4.271-2.944,7.434-3.392c-0.482,1.752-1.917,2.553-3.474,3.23
			c1.117-0.255,2.327-0.795,3.796-1.212c1.028-0.291,4.059-1.142,4.12,0.485c0.05,1.364-2.348,2.044-3.635,2.424
			c-1.875,0.552-3.311,0.811-4.605,1.372c6.827-0.187,11.422,2.894,14.782,6.382c3.086,3.204,5.25,7.368,6.221,12.198
			c3.588,1.263,8.731,0.219,11.39-1.212c-1.537,3.715-5.328,5.873-10.42,6.3c2.664,1.229,6.869,1.633,10.662,1.212
			c0.092,0.217-0.404,0.688-0.728,0.97c-2.36,2.07-6.009,3.442-10.582,3.393c-2.727,10.041-8.765,17.368-16.316,22.618
			c-7.614,5.291-17.332,8.873-29.565,9.369C40.53,83.765,39.749,83.765,38.968,83.765z"/>
	</g>
</g>
</svg>
